<svg width="188" height="50" viewBox="0 0 188 50" fill="none" xmlns="http://www.w3.org/2000/svg">
<rect width="188" height="50" fill="#F6F6F6"/>
<path d="M13.5 6L13.5 44" stroke="#FF0303" stroke-width="2"/>
<path d="M34.22 25.48V26H29.4V25.48L30.5 25.36C30.7133 25.3333 30.84 25.28 30.88 25.2C30.92 25.1067 30.94 24.8333 30.94 24.38V13.54L26.78 24.4H25.42L21.24 13.54V24.38C21.24 24.8333 21.26 25.1067 21.3 25.2C21.34 25.28 21.4667 25.3333 21.68 25.36L22.78 25.48V26H18.96V25.48L20.06 25.36C20.2733 25.3333 20.4 25.28 20.44 25.2C20.48 25.1067 20.5 24.8333 20.5 24.38V14.02C20.5 13.5667 20.48 13.3 20.44 13.22C20.4 13.1267 20.2733 13.0667 20.06 13.04L18.96 12.94V12.4H22.62L26.64 22.9L30.66 12.4H34.22V12.94L33.12 13.04C32.9067 13.0667 32.78 13.1267 32.74 13.22C32.7 13.3 32.68 13.5667 32.68 14.02V24.38C32.68 24.8333 32.7 25.1067 32.74 25.2C32.78 25.28 32.9067 25.3333 33.12 25.36L34.22 25.48ZM45.107 20.84V21.24C45.107 22.7467 44.727 23.9533 43.967 24.86C43.2204 25.7533 42.1537 26.2 40.767 26.2C39.3937 26.2 38.327 25.7533 37.567 24.86C36.8204 23.9533 36.447 22.7467 36.447 21.24V20.84C36.447 19.3467 36.8204 18.1533 37.567 17.26C38.3137 16.3533 39.3804 15.9 40.767 15.9C42.1537 15.9 43.2204 16.3533 43.967 17.26C44.727 18.1533 45.107 19.3467 45.107 20.84ZM43.307 20.44C43.307 19.0533 43.087 18.06 42.647 17.46C42.2204 16.8467 41.5937 16.54 40.767 16.54C39.9537 16.54 39.327 16.8467 38.887 17.46C38.4604 18.06 38.247 19.0533 38.247 20.44V21.64C38.247 23.04 38.4604 24.0467 38.887 24.66C39.327 25.26 39.9537 25.56 40.767 25.56C41.5937 25.56 42.2204 25.26 42.647 24.66C43.087 24.0467 43.307 23.04 43.307 21.64V20.44ZM57.7398 25.48V26H54.6598V24.4C54.1932 25.0267 53.6598 25.4867 53.0598 25.78C52.4732 26.06 51.8865 26.2 51.2998 26.2C50.3532 26.2 49.6132 25.9 49.0798 25.3C48.5598 24.6867 48.2998 23.8267 48.2998 22.72V17.72C48.2998 17.2533 48.2798 16.98 48.2398 16.9C48.1998 16.82 48.0732 16.7667 47.8598 16.74L46.7598 16.64V16.1H49.9398V22.7C49.9398 23.6867 50.0865 24.3867 50.3798 24.8C50.6865 25.2 51.1265 25.4 51.6998 25.4C52.1265 25.4 52.5932 25.2667 53.0998 25C53.6198 24.7333 54.1065 24.22 54.5598 23.46V17.72C54.5598 17.2533 54.5398 16.98 54.4998 16.9C54.4598 16.8067 54.3332 16.7533 54.1198 16.74L52.6198 16.64V16.1H56.1998V24.38C56.1998 24.8467 56.2198 25.12 56.2598 25.2C56.2998 25.28 56.4265 25.3333 56.6398 25.36L57.7398 25.48ZM59.0125 16.64V16.1H62.0925V17.7C62.5592 17.0733 63.0258 16.62 63.4925 16.34C63.9725 16.0467 64.4592 15.9 64.9525 15.9C65.3792 15.9 65.7792 16.0267 66.1525 16.28C66.5258 16.5333 66.8392 16.94 67.0925 17.5L65.7925 18.28C65.5925 17.8 65.3658 17.4667 65.1125 17.28C64.8592 17.0933 64.5792 17 64.2725 17C63.9392 17 63.6058 17.1067 63.2725 17.32C62.9525 17.5333 62.5925 17.9333 62.1925 18.52V24.38C62.1925 24.8467 62.2125 25.1267 62.2525 25.22C62.2925 25.3 62.4192 25.3467 62.6325 25.36L64.1325 25.48V26H59.0125V25.48L60.1125 25.36C60.3258 25.3333 60.4525 25.28 60.4925 25.2C60.5325 25.12 60.5525 24.8467 60.5525 24.38V17.72C60.5525 17.2533 60.5325 16.98 60.4925 16.9C60.4525 16.82 60.3258 16.7667 60.1125 16.74L59.0125 16.64ZM70.1416 13.86C69.8216 13.86 69.5549 13.76 69.3416 13.56C69.1416 13.3467 69.0416 13.0733 69.0416 12.74C69.0416 12.42 69.1416 12.16 69.3416 11.96C69.5549 11.76 69.8216 11.66 70.1416 11.66C70.4616 11.66 70.7216 11.76 70.9216 11.96C71.1349 12.16 71.2416 12.42 71.2416 12.74C71.2416 13.0733 71.1349 13.3467 70.9216 13.56C70.7216 13.76 70.4616 13.86 70.1416 13.86ZM67.8016 16.64V16.1H70.9816V24.38C70.9816 24.8467 71.0016 25.12 71.0416 25.2C71.0816 25.28 71.2082 25.3333 71.4216 25.36L72.5216 25.48V26H67.8016V25.48L68.9016 25.36C69.1149 25.3333 69.2416 25.28 69.2816 25.2C69.3216 25.12 69.3416 24.8467 69.3416 24.38V17.72C69.3416 17.2533 69.3216 16.98 69.2816 16.9C69.2416 16.82 69.1149 16.7667 68.9016 16.74L67.8016 16.64ZM73.6381 11.74V11.2H76.8181V21.44L80.5981 17.6C80.9848 17.2133 81.1915 16.98 81.2181 16.9C81.2448 16.82 81.1448 16.7667 80.9181 16.74L79.8981 16.64V16.1H83.7581V16.64L82.7381 16.74C82.6181 16.7533 82.5181 16.78 82.4381 16.82C82.3581 16.8467 82.2515 16.92 82.1181 17.04C81.9981 17.1467 81.8048 17.3333 81.5381 17.6L79.3381 19.82L82.2781 24.5C82.4515 24.7667 82.5781 24.96 82.6581 25.08C82.7515 25.1867 82.8381 25.26 82.9181 25.3C82.9981 25.3267 83.1048 25.3467 83.2381 25.36L84.2781 25.48V26H81.2581L78.2181 20.96L76.8181 22.38V24.38C76.8181 24.8467 76.8381 25.12 76.8781 25.2C76.9181 25.28 77.0448 25.3333 77.2581 25.36L78.3581 25.48V26H73.6381V25.48L74.7381 25.36C74.9515 25.3333 75.0781 25.28 75.1181 25.2C75.1581 25.12 75.1781 24.8467 75.1781 24.38V12.82C75.1781 12.3533 75.1581 12.08 75.1181 12C75.0781 11.92 74.9515 11.8667 74.7381 11.84L73.6381 11.74ZM93.2486 26.14C92.2086 26.14 91.5953 25.66 91.4086 24.7C90.9419 25.2333 90.4286 25.62 89.8686 25.86C89.3086 26.0867 88.7553 26.2 88.2086 26.2C87.2753 26.2 86.5886 25.94 86.1486 25.42C85.7086 24.9 85.4886 24.2733 85.4886 23.54C85.4886 22.7533 85.7553 22.1333 86.2886 21.68C86.8353 21.2133 87.7753 20.98 89.1086 20.98H91.3686V19.36C91.3686 18.2933 91.1819 17.56 90.8086 17.16C90.4486 16.7467 89.9553 16.54 89.3286 16.54C88.9286 16.54 88.5686 16.62 88.2486 16.78C87.9286 16.94 87.6953 17.2333 87.5486 17.66C87.4153 18.0733 87.4019 18.68 87.5086 19.48L85.9286 19.24C85.8619 18.6133 85.9419 18.0533 86.1686 17.56C86.4086 17.0533 86.7953 16.6533 87.3286 16.36C87.8753 16.0533 88.5553 15.9 89.3686 15.9C90.3419 15.9 91.0886 16.0667 91.6086 16.4C92.1286 16.72 92.4886 17.14 92.6886 17.66C92.9019 18.18 93.0086 18.7467 93.0086 19.36V23.86C93.0086 24.54 93.0819 24.9667 93.2286 25.14C93.3886 25.3133 93.5619 25.4 93.7486 25.4C93.8686 25.4 93.9953 25.3733 94.1286 25.32C94.2619 25.2533 94.4086 25.1533 94.5686 25.02L94.9286 25.52C94.7286 25.6933 94.4886 25.84 94.2086 25.96C93.9419 26.08 93.6219 26.14 93.2486 26.14ZM88.7686 25.36C89.1419 25.36 89.5419 25.26 89.9686 25.06C90.4086 24.8467 90.8753 24.4267 91.3686 23.8V21.62H89.3286C88.5819 21.62 88.0353 21.7733 87.6886 22.08C87.3553 22.3733 87.1886 22.8333 87.1886 23.46C87.1886 24.06 87.3153 24.5267 87.5686 24.86C87.8353 25.1933 88.2353 25.36 88.7686 25.36ZM105.021 16.54C104.287 16.54 103.714 16.8467 103.301 17.46C102.901 18.06 102.701 19.0533 102.701 20.44V21.64C102.701 23.04 102.901 24.0467 103.301 24.66C103.714 25.26 104.381 25.56 105.301 25.56C105.927 25.56 106.434 25.4 106.821 25.08C107.207 24.76 107.467 24.2067 107.601 23.42L108.661 23.72C108.421 24.6267 107.981 25.2667 107.341 25.64C106.701 26.0133 105.987 26.2 105.201 26.2C103.761 26.2 102.681 25.7533 101.961 24.86C101.254 23.9533 100.901 22.7467 100.901 21.24V20.84C100.901 19.3467 101.254 18.1533 101.961 17.26C102.667 16.3533 103.687 15.9 105.021 15.9C105.874 15.9 106.581 16.0667 107.141 16.4C107.714 16.7333 108.121 17.1867 108.361 17.76C108.601 18.32 108.667 18.94 108.561 19.62L106.981 19.86C107.127 18.7933 107.027 17.9733 106.681 17.4C106.347 16.8267 105.794 16.54 105.021 16.54ZM121.08 25.48V26H118V24.4C117.533 25.0267 117 25.4867 116.4 25.78C115.813 26.06 115.226 26.2 114.64 26.2C113.693 26.2 112.953 25.9 112.42 25.3C111.9 24.6867 111.64 23.8267 111.64 22.72V17.72C111.64 17.2533 111.62 16.98 111.58 16.9C111.54 16.82 111.413 16.7667 111.2 16.74L110.1 16.64V16.1H113.28V22.7C113.28 23.6867 113.426 24.3867 113.72 24.8C114.026 25.2 114.466 25.4 115.04 25.4C115.466 25.4 115.933 25.2667 116.44 25C116.96 24.7333 117.446 24.22 117.9 23.46V17.72C117.9 17.2533 117.88 16.98 117.84 16.9C117.8 16.8067 117.673 16.7533 117.46 16.74L115.96 16.64V16.1H119.54V24.38C119.54 24.8467 119.56 25.12 119.6 25.2C119.64 25.28 119.766 25.3333 119.98 25.36L121.08 25.48ZM122.212 11.74V11.2H125.392V24.38C125.392 24.8467 125.412 25.12 125.452 25.2C125.492 25.28 125.619 25.3333 125.832 25.36L126.932 25.48V26H122.212V25.48L123.312 25.36C123.526 25.3333 123.652 25.28 123.692 25.2C123.732 25.12 123.752 24.8467 123.752 24.38V12.82C123.752 12.3533 123.732 12.08 123.692 12C123.652 11.92 123.526 11.8667 123.312 11.84L122.212 11.74ZM134.812 23.96C134.612 24.7333 134.298 25.3 133.872 25.66C133.445 26.02 132.898 26.2 132.232 26.2C131.592 26.2 131.072 26.06 130.672 25.78C130.272 25.4867 129.978 25.1067 129.792 24.64C129.605 24.1733 129.512 23.6867 129.512 23.18V17.72C129.512 17.2533 129.492 16.98 129.452 16.9C129.425 16.82 129.298 16.7667 129.072 16.74L127.972 16.64V16.1H129.512V13.48L131.152 13.14V16.1H134.412V16.74H131.152V23.34C131.152 24.18 131.265 24.76 131.492 25.08C131.732 25.4 132.045 25.56 132.432 25.56C132.818 25.56 133.112 25.4133 133.312 25.12C133.525 24.8267 133.678 24.3467 133.772 23.68L134.812 23.96ZM146.646 25.48V26H143.566V24.4C143.099 25.0267 142.566 25.4867 141.966 25.78C141.379 26.06 140.793 26.2 140.206 26.2C139.259 26.2 138.519 25.9 137.986 25.3C137.466 24.6867 137.206 23.8267 137.206 22.72V17.72C137.206 17.2533 137.186 16.98 137.146 16.9C137.106 16.82 136.979 16.7667 136.766 16.74L135.666 16.64V16.1H138.846V22.7C138.846 23.6867 138.993 24.3867 139.286 24.8C139.593 25.2 140.033 25.4 140.606 25.4C141.033 25.4 141.499 25.2667 142.006 25C142.526 24.7333 143.013 24.22 143.466 23.46V17.72C143.466 17.2533 143.446 16.98 143.406 16.9C143.366 16.8067 143.239 16.7533 143.026 16.74L141.526 16.64V16.1H145.106V24.38C145.106 24.8467 145.126 25.12 145.166 25.2C145.206 25.28 145.333 25.3333 145.546 25.36L146.646 25.48ZM147.919 16.64V16.1H150.999V17.7C151.465 17.0733 151.932 16.62 152.399 16.34C152.879 16.0467 153.365 15.9 153.859 15.9C154.285 15.9 154.685 16.0267 155.059 16.28C155.432 16.5333 155.745 16.94 155.999 17.5L154.699 18.28C154.499 17.8 154.272 17.4667 154.019 17.28C153.765 17.0933 153.485 17 153.179 17C152.845 17 152.512 17.1067 152.179 17.32C151.859 17.5333 151.499 17.9333 151.099 18.52V24.38C151.099 24.8467 151.119 25.1267 151.159 25.22C151.199 25.3 151.325 25.3467 151.539 25.36L153.039 25.48V26H147.919V25.48L149.019 25.36C149.232 25.3333 149.359 25.28 149.399 25.2C149.439 25.12 149.459 24.8467 149.459 24.38V17.72C149.459 17.2533 149.439 16.98 149.399 16.9C149.359 16.82 149.232 16.7667 149.019 16.74L147.919 16.64ZM165.111 23.72C164.871 24.6267 164.417 25.2667 163.751 25.64C163.097 26.0133 162.371 26.2 161.571 26.2C160.091 26.2 158.984 25.7533 158.251 24.86C157.517 23.9533 157.151 22.7467 157.151 21.24V20.84C157.151 19.3467 157.504 18.1533 158.211 17.26C158.917 16.3533 159.944 15.9 161.291 15.9C162.011 15.9 162.664 16.0467 163.251 16.34C163.851 16.6333 164.324 17.0667 164.671 17.64C165.031 18.2133 165.211 18.9267 165.211 19.78C165.211 20.18 165.171 20.6 165.091 21.04H158.951V21.64C158.951 23.04 159.164 24.0467 159.591 24.66C160.031 25.26 160.737 25.56 161.711 25.56C162.324 25.56 162.831 25.4 163.231 25.08C163.644 24.76 163.917 24.2067 164.051 23.42L165.111 23.72ZM161.291 16.54C160.504 16.54 159.917 16.84 159.531 17.44C159.144 18.04 158.951 19.0267 158.951 20.4H163.451V20.34C163.477 20.1667 163.497 20 163.511 19.84C163.524 19.6667 163.531 19.5133 163.531 19.38C163.531 18.38 163.324 17.66 162.911 17.22C162.497 16.7667 161.957 16.54 161.291 16.54ZM171.318 21.96L170.098 21.66C168.432 21.2333 167.598 20.2733 167.598 18.78C167.598 18.2867 167.712 17.82 167.938 17.38C168.165 16.94 168.525 16.5867 169.018 16.32C169.525 16.04 170.172 15.9 170.958 15.9C171.838 15.9 172.545 16.0467 173.078 16.34C173.612 16.6333 173.985 17.0133 174.198 17.48C174.412 17.9467 174.478 18.4533 174.398 19L172.838 19.28C172.998 18.4133 172.905 17.74 172.558 17.26C172.225 16.78 171.672 16.54 170.898 16.54C170.298 16.54 169.818 16.6933 169.458 17C169.098 17.2933 168.918 17.7267 168.918 18.3C168.918 18.7267 169.052 19.1067 169.318 19.44C169.585 19.76 170.032 20 170.658 20.16L171.918 20.46C172.798 20.6733 173.478 21.0133 173.958 21.48C174.452 21.9467 174.698 22.56 174.698 23.32C174.698 24.1733 174.385 24.8667 173.758 25.4C173.145 25.9333 172.265 26.2 171.118 26.2C170.572 26.2 170.038 26.12 169.518 25.96C169.012 25.7867 168.565 25.52 168.178 25.16C167.805 24.7867 167.532 24.3067 167.358 23.72L168.478 23.32C168.625 24.16 168.945 24.7467 169.438 25.08C169.932 25.4133 170.498 25.58 171.138 25.58C171.512 25.58 171.865 25.52 172.198 25.4C172.545 25.28 172.825 25.0933 173.038 24.84C173.252 24.5733 173.358 24.2333 173.358 23.82C173.358 23.3933 173.212 23.0267 172.918 22.72C172.625 22.4133 172.092 22.16 171.318 21.96Z" fill="#F89D00"/>
<path d="M22.09 33.49H22.35V35.83H22.09L21.9 35.08C21.88 35 21.8567 34.9433 21.83 34.91C21.81 34.87 21.7667 34.8467 21.7 34.84C21.6333 34.8267 21.52 34.82 21.36 34.82H20.12V37.19C20.12 37.4233 20.13 37.5633 20.15 37.61C20.17 37.65 20.2333 37.6733 20.34 37.68L21.09 37.74V38H18.48V37.74L19.03 37.68C19.1367 37.6667 19.2 37.64 19.22 37.6C19.24 37.56 19.25 37.4233 19.25 37.19V32.01C19.25 31.7767 19.24 31.64 19.22 31.6C19.2 31.56 19.1367 31.5333 19.03 31.52L18.48 31.47V31.2H23.05V32.83H22.79L22.5 31.78C22.4733 31.6667 22.4333 31.5967 22.38 31.57C22.3333 31.5367 22.1933 31.52 21.96 31.52H20.12V34.5H21.36C21.52 34.5 21.6333 34.4967 21.7 34.49C21.7667 34.4767 21.81 34.4533 21.83 34.42C21.8567 34.38 21.88 34.32 21.9 34.24L22.09 33.49ZM27.6165 38.07C27.0965 38.07 26.7898 37.83 26.6965 37.35C26.4632 37.6167 26.2065 37.81 25.9265 37.93C25.6465 38.0433 25.3698 38.1 25.0965 38.1C24.6298 38.1 24.2865 37.97 24.0665 37.71C23.8465 37.45 23.7365 37.1367 23.7365 36.77C23.7365 36.3767 23.8698 36.0667 24.1365 35.84C24.4098 35.6067 24.8798 35.49 25.5465 35.49H26.6765V34.68C26.6765 34.1467 26.5832 33.78 26.3965 33.58C26.2165 33.3733 25.9698 33.27 25.6565 33.27C25.4565 33.27 25.2765 33.31 25.1165 33.39C24.9565 33.47 24.8398 33.6167 24.7665 33.83C24.6998 34.0367 24.6932 34.34 24.7465 34.74L23.9565 34.62C23.9232 34.3067 23.9632 34.0267 24.0765 33.78C24.1965 33.5267 24.3898 33.3267 24.6565 33.18C24.9298 33.0267 25.2698 32.95 25.6765 32.95C26.1632 32.95 26.5365 33.0333 26.7965 33.2C27.0565 33.36 27.2365 33.57 27.3365 33.83C27.4432 34.09 27.4965 34.3733 27.4965 34.68V36.93C27.4965 37.27 27.5332 37.4833 27.6065 37.57C27.6865 37.6567 27.7732 37.7 27.8665 37.7C27.9265 37.7 27.9898 37.6867 28.0565 37.66C28.1232 37.6267 28.1965 37.5767 28.2765 37.51L28.4565 37.76C28.3565 37.8467 28.2365 37.92 28.0965 37.98C27.9632 38.04 27.8032 38.07 27.6165 38.07ZM25.3765 37.68C25.5632 37.68 25.7632 37.63 25.9765 37.53C26.1965 37.4233 26.4298 37.2133 26.6765 36.9V35.81H25.6565C25.2832 35.81 25.0098 35.8867 24.8365 36.04C24.6698 36.1867 24.5865 36.4167 24.5865 36.73C24.5865 37.03 24.6498 37.2633 24.7765 37.43C24.9098 37.5967 25.1098 37.68 25.3765 37.68ZM34.4869 37.74V38H32.1269V37.74L32.6769 37.68C32.7835 37.6667 32.8469 37.64 32.8669 37.6C32.8869 37.56 32.8969 37.4233 32.8969 37.19V34.7C32.8969 34.2067 32.8169 33.86 32.6569 33.66C32.4969 33.4533 32.2669 33.35 31.9669 33.35C31.7469 33.35 31.5035 33.4167 31.2369 33.55C30.9702 33.6833 30.7202 33.9433 30.4869 34.33V37.19C30.4869 37.4233 30.4969 37.56 30.5169 37.6C30.5369 37.64 30.6002 37.6667 30.7069 37.68L31.2569 37.74V38H28.8969V37.74L29.4469 37.68C29.5535 37.6667 29.6169 37.64 29.6369 37.6C29.6569 37.56 29.6669 37.4233 29.6669 37.19V33.86C29.6669 33.6267 29.6569 33.49 29.6369 33.45C29.6169 33.41 29.5535 33.3833 29.4469 33.37L28.8969 33.32V33.05H30.4369V33.86C30.6769 33.54 30.9469 33.31 31.2469 33.17C31.5535 33.0233 31.8602 32.95 32.1669 32.95C32.6602 32.95 33.0402 33.1033 33.3069 33.41C33.5802 33.71 33.7169 34.1367 33.7169 34.69V37.19C33.7169 37.4233 33.7269 37.56 33.7469 37.6C33.7669 37.64 33.8302 37.6667 33.9369 37.68L34.4869 37.74ZM37.4088 33.27C37.0421 33.27 36.7554 33.4233 36.5488 33.73C36.3488 34.03 36.2488 34.5267 36.2488 35.22V35.82C36.2488 36.52 36.3488 37.0233 36.5488 37.33C36.7554 37.63 37.0888 37.78 37.5488 37.78C37.8621 37.78 38.1154 37.7 38.3088 37.54C38.5021 37.38 38.6321 37.1033 38.6988 36.71L39.2288 36.86C39.1088 37.3133 38.8888 37.6333 38.5688 37.82C38.2488 38.0067 37.8921 38.1 37.4988 38.1C36.7788 38.1 36.2388 37.8767 35.8788 37.43C35.5254 36.9767 35.3488 36.3733 35.3488 35.62V35.42C35.3488 34.6733 35.5254 34.0767 35.8788 33.63C36.2321 33.1767 36.7421 32.95 37.4088 32.95C37.8354 32.95 38.1888 33.0333 38.4688 33.2C38.7554 33.3667 38.9588 33.5933 39.0788 33.88C39.1988 34.16 39.2321 34.47 39.1788 34.81L38.3888 34.93C38.4621 34.3967 38.4121 33.9867 38.2388 33.7C38.0721 33.4133 37.7954 33.27 37.4088 33.27ZM42.5188 38.5C42.3721 38.9067 42.2121 39.2367 42.0388 39.49C41.8654 39.75 41.6588 39.9367 41.4188 40.05C41.1788 40.17 40.8788 40.23 40.5188 40.23V39.43C40.9988 39.43 41.3621 39.3533 41.6088 39.2C41.8554 39.0533 42.0521 38.7767 42.1988 38.37L42.3288 38H42.0388L40.5688 33.8C40.5021 33.6067 40.4521 33.4933 40.4188 33.46C40.3854 33.42 40.3154 33.3933 40.2088 33.38L39.6987 33.32V33.05H41.9788V33.32L41.4688 33.38C41.3754 33.3867 41.3221 33.41 41.3088 33.45C41.2954 33.49 41.3221 33.6067 41.3888 33.8L42.5888 37.26L43.7988 33.79C43.8588 33.5967 43.8821 33.4833 43.8688 33.45C43.8621 33.4167 43.8088 33.3933 43.7088 33.38L43.1888 33.32V33.05H45.0188V33.32L44.5088 33.38C44.4088 33.3933 44.3421 33.4167 44.3088 33.45C44.2754 33.4833 44.2254 33.5967 44.1588 33.79L42.5188 38.5ZM47.532 37.78C47.872 37.78 48.1486 37.68 48.362 37.48C48.5753 37.2733 48.6986 37.0067 48.732 36.68C48.772 36.3533 48.6953 36.0067 48.502 35.64L49.152 35.23L50.382 37.31C50.4886 37.4967 50.5653 37.6067 50.612 37.64C50.6586 37.6667 50.7353 37.6867 50.842 37.7L51.332 37.75V38H49.872L49.072 36.61C49.0653 37.0167 48.922 37.3667 48.642 37.66C48.3686 37.9533 47.9753 38.1 47.462 38.1C46.8953 38.1 46.4286 37.9667 46.062 37.7C45.6953 37.4267 45.512 37.0367 45.512 36.53C45.512 36.11 45.6553 35.7433 45.942 35.43C46.2353 35.11 46.6453 34.79 47.172 34.47L47.282 34.4C46.8153 34.14 46.4686 33.8633 46.242 33.57C46.0153 33.2767 45.902 32.9667 45.902 32.64C45.902 32.38 45.972 32.1333 46.112 31.9C46.252 31.66 46.452 31.4667 46.712 31.32C46.9786 31.1733 47.2886 31.1 47.642 31.1C48.0086 31.1 48.3186 31.1733 48.572 31.32C48.832 31.46 49.032 31.6467 49.172 31.88C49.312 32.1133 49.382 32.3667 49.382 32.64C49.382 32.9067 49.3186 33.14 49.192 33.34C49.072 33.54 48.9053 33.72 48.692 33.88C48.4853 34.0333 48.2553 34.19 48.002 34.35L47.442 34.71C47.1153 34.9167 46.8553 35.1633 46.662 35.45C46.4753 35.73 46.382 36.0767 46.382 36.49C46.382 36.95 46.4953 37.28 46.722 37.48C46.9553 37.68 47.2253 37.78 47.532 37.78ZM46.772 32.59C46.772 32.8367 46.822 33.1033 46.922 33.39C47.022 33.67 47.2353 33.9467 47.562 34.22L47.752 34.09C47.9986 33.9367 48.1853 33.74 48.312 33.5C48.4453 33.26 48.512 32.9667 48.512 32.62C48.512 32.2133 48.432 31.9133 48.272 31.72C48.112 31.52 47.9053 31.42 47.652 31.42C47.3986 31.42 47.1886 31.5133 47.022 31.7C46.8553 31.88 46.772 32.1767 46.772 32.59ZM55.2834 33.49H55.5434V35.83H55.2834L55.0934 35.08C55.0734 35 55.05 34.9433 55.0234 34.91C55.0034 34.87 54.96 34.8467 54.8934 34.84C54.8267 34.8267 54.7134 34.82 54.5534 34.82H53.3134V37.19C53.3134 37.4233 53.3234 37.5633 53.3434 37.61C53.3634 37.65 53.4267 37.6733 53.5334 37.68L54.2834 37.74V38H51.6734V37.74L52.2234 37.68C52.33 37.6667 52.3934 37.64 52.4134 37.6C52.4334 37.56 52.4434 37.4233 52.4434 37.19V32.01C52.4434 31.7767 52.4334 31.64 52.4134 31.6C52.3934 31.56 52.33 31.5333 52.2234 31.52L51.6734 31.47V31.2H56.2434V32.83H55.9834L55.6934 31.78C55.6667 31.6667 55.6267 31.5967 55.5734 31.57C55.5267 31.5367 55.3867 31.52 55.1534 31.52H53.3134V34.5H54.5534C54.7134 34.5 54.8267 34.4967 54.8934 34.49C54.96 34.4767 55.0034 34.4533 55.0234 34.42C55.05 34.38 55.0734 34.32 55.0934 34.24L55.2834 33.49ZM60.8098 38.07C60.2898 38.07 59.9832 37.83 59.8898 37.35C59.6565 37.6167 59.3998 37.81 59.1198 37.93C58.8398 38.0433 58.5632 38.1 58.2898 38.1C57.8232 38.1 57.4798 37.97 57.2598 37.71C57.0398 37.45 56.9298 37.1367 56.9298 36.77C56.9298 36.3767 57.0632 36.0667 57.3298 35.84C57.6032 35.6067 58.0732 35.49 58.7398 35.49H59.8698V34.68C59.8698 34.1467 59.7765 33.78 59.5898 33.58C59.4098 33.3733 59.1632 33.27 58.8498 33.27C58.6498 33.27 58.4698 33.31 58.3098 33.39C58.1498 33.47 58.0332 33.6167 57.9598 33.83C57.8932 34.0367 57.8865 34.34 57.9398 34.74L57.1498 34.62C57.1165 34.3067 57.1565 34.0267 57.2698 33.78C57.3898 33.5267 57.5832 33.3267 57.8498 33.18C58.1232 33.0267 58.4632 32.95 58.8698 32.95C59.3565 32.95 59.7298 33.0333 59.9898 33.2C60.2498 33.36 60.4298 33.57 60.5298 33.83C60.6365 34.09 60.6898 34.3733 60.6898 34.68V36.93C60.6898 37.27 60.7265 37.4833 60.7998 37.57C60.8798 37.6567 60.9665 37.7 61.0598 37.7C61.1198 37.7 61.1832 37.6867 61.2498 37.66C61.3165 37.6267 61.3898 37.5767 61.4698 37.51L61.6498 37.76C61.5498 37.8467 61.4298 37.92 61.2898 37.98C61.1565 38.04 60.9965 38.07 60.8098 38.07ZM58.5698 37.68C58.7565 37.68 58.9565 37.63 59.1698 37.53C59.3898 37.4233 59.6232 37.2133 59.8698 36.9V35.81H58.8498C58.4765 35.81 58.2032 35.8867 58.0298 36.04C57.8632 36.1867 57.7798 36.4167 57.7798 36.73C57.7798 37.03 57.8432 37.2633 57.9698 37.43C58.1032 37.5967 58.3032 37.68 58.5698 37.68ZM64.2002 35.98L63.5902 35.83C62.7569 35.6167 62.3402 35.1367 62.3402 34.39C62.3402 34.1433 62.3969 33.91 62.5102 33.69C62.6236 33.47 62.8036 33.2933 63.0502 33.16C63.3036 33.02 63.6269 32.95 64.0202 32.95C64.4602 32.95 64.8136 33.0233 65.0802 33.17C65.3469 33.3167 65.5336 33.5067 65.6402 33.74C65.7469 33.9733 65.7802 34.2267 65.7402 34.5L64.9602 34.64C65.0402 34.2067 64.9936 33.87 64.8202 33.63C64.6536 33.39 64.3769 33.27 63.9902 33.27C63.6902 33.27 63.4502 33.3467 63.2702 33.5C63.0902 33.6467 63.0002 33.8633 63.0002 34.15C63.0002 34.3633 63.0669 34.5533 63.2002 34.72C63.3336 34.88 63.5569 35 63.8702 35.08L64.5002 35.23C64.9402 35.3367 65.2802 35.5067 65.5202 35.74C65.7669 35.9733 65.8902 36.28 65.8902 36.66C65.8902 37.0867 65.7336 37.4333 65.4202 37.7C65.1136 37.9667 64.6736 38.1 64.1002 38.1C63.8269 38.1 63.5602 38.06 63.3002 37.98C63.0469 37.8933 62.8236 37.76 62.6302 37.58C62.4436 37.3933 62.3069 37.1533 62.2202 36.86L62.7802 36.66C62.8536 37.08 63.0136 37.3733 63.2602 37.54C63.5069 37.7067 63.7902 37.79 64.1102 37.79C64.2969 37.79 64.4736 37.76 64.6402 37.7C64.8136 37.64 64.9536 37.5467 65.0602 37.42C65.1669 37.2867 65.2202 37.1167 65.2202 36.91C65.2202 36.6967 65.1469 36.5133 65.0002 36.36C64.8536 36.2067 64.5869 36.08 64.2002 35.98ZM72.3466 37.74V38H69.9866V37.74L70.5366 37.68C70.6432 37.6667 70.7066 37.64 70.7266 37.6C70.7466 37.56 70.7566 37.4233 70.7566 37.19V34.7C70.7566 34.2067 70.6766 33.86 70.5166 33.66C70.3566 33.4533 70.1299 33.35 69.8366 33.35C69.6099 33.35 69.3632 33.4167 69.0966 33.55C68.8299 33.6833 68.5799 33.9467 68.3466 34.34V37.19C68.3466 37.4233 68.3566 37.56 68.3766 37.6C68.3966 37.64 68.4599 37.6667 68.5666 37.68L69.1166 37.74V38H66.7566V37.74L67.3066 37.68C67.4132 37.6667 67.4766 37.64 67.4966 37.6C67.5166 37.56 67.5266 37.4233 67.5266 37.19V31.41C67.5266 31.1767 67.5166 31.04 67.4966 31C67.4766 30.96 67.4132 30.9333 67.3066 30.92L66.7566 30.87V30.6H68.3466V33.81C68.5799 33.51 68.8466 33.2933 69.1466 33.16C69.4466 33.02 69.7432 32.95 70.0366 32.95C70.5299 32.95 70.9099 33.1033 71.1766 33.41C71.4432 33.71 71.5766 34.1367 71.5766 34.69V37.19C71.5766 37.4233 71.5866 37.56 71.6066 37.6C71.6266 37.64 71.6899 37.6667 71.7966 37.68L72.3466 37.74ZM74.1001 31.93C73.9401 31.93 73.8067 31.88 73.7001 31.78C73.6001 31.6733 73.5501 31.5367 73.5501 31.37C73.5501 31.21 73.6001 31.08 73.7001 30.98C73.8067 30.88 73.9401 30.83 74.1001 30.83C74.2601 30.83 74.3901 30.88 74.4901 30.98C74.5967 31.08 74.6501 31.21 74.6501 31.37C74.6501 31.5367 74.5967 31.6733 74.4901 31.78C74.3901 31.88 74.2601 31.93 74.1001 31.93ZM72.9301 33.32V33.05H74.5201V37.19C74.5201 37.4233 74.5301 37.56 74.5501 37.6C74.5701 37.64 74.6334 37.6667 74.7401 37.68L75.2901 37.74V38H72.9301V37.74L73.4801 37.68C73.5867 37.6667 73.6501 37.64 73.6701 37.6C73.6901 37.56 73.7001 37.4233 73.7001 37.19V33.86C73.7001 33.6267 73.6901 33.49 73.6701 33.45C73.6501 33.41 73.5867 33.3833 73.4801 33.37L72.9301 33.32ZM80.5184 35.42V35.62C80.5184 36.3733 80.3284 36.9767 79.9484 37.43C79.575 37.8767 79.0417 38.1 78.3484 38.1C77.6617 38.1 77.1284 37.8767 76.7484 37.43C76.375 36.9767 76.1884 36.3733 76.1884 35.62V35.42C76.1884 34.6733 76.375 34.0767 76.7484 33.63C77.1217 33.1767 77.655 32.95 78.3484 32.95C79.0417 32.95 79.575 33.1767 79.9484 33.63C80.3284 34.0767 80.5184 34.6733 80.5184 35.42ZM79.6184 35.22C79.6184 34.5267 79.5084 34.03 79.2884 33.73C79.075 33.4233 78.7617 33.27 78.3484 33.27C77.9417 33.27 77.6284 33.4233 77.4084 33.73C77.195 34.03 77.0884 34.5267 77.0884 35.22V35.82C77.0884 36.52 77.195 37.0233 77.4084 37.33C77.6284 37.63 77.9417 37.78 78.3484 37.78C78.7617 37.78 79.075 37.63 79.2884 37.33C79.5084 37.0233 79.6184 36.52 79.6184 35.82V35.22ZM87.0748 37.74V38H84.7148V37.74L85.2648 37.68C85.3714 37.6667 85.4348 37.64 85.4548 37.6C85.4748 37.56 85.4848 37.4233 85.4848 37.19V34.7C85.4848 34.2067 85.4048 33.86 85.2448 33.66C85.0848 33.4533 84.8548 33.35 84.5548 33.35C84.3348 33.35 84.0914 33.4167 83.8248 33.55C83.5581 33.6833 83.3081 33.9433 83.0748 34.33V37.19C83.0748 37.4233 83.0848 37.56 83.1048 37.6C83.1248 37.64 83.1881 37.6667 83.2948 37.68L83.8448 37.74V38H81.4848V37.74L82.0348 37.68C82.1414 37.6667 82.2048 37.64 82.2248 37.6C82.2448 37.56 82.2548 37.4233 82.2548 37.19V33.86C82.2548 33.6267 82.2448 33.49 82.2248 33.45C82.2048 33.41 82.1414 33.3833 82.0348 33.37L81.4848 33.32V33.05H83.0248V33.86C83.2648 33.54 83.5348 33.31 83.8348 33.17C84.1414 33.0233 84.4481 32.95 84.7548 32.95C85.2481 32.95 85.6281 33.1033 85.8948 33.41C86.1681 33.71 86.3048 34.1367 86.3048 34.69V37.19C86.3048 37.4233 86.3148 37.56 86.3348 37.6C86.3548 37.64 86.4181 37.6667 86.5248 37.68L87.0748 37.74ZM89.7666 35.98L89.1566 35.83C88.3233 35.6167 87.9066 35.1367 87.9066 34.39C87.9066 34.1433 87.9633 33.91 88.0766 33.69C88.19 33.47 88.37 33.2933 88.6166 33.16C88.87 33.02 89.1933 32.95 89.5866 32.95C90.0266 32.95 90.38 33.0233 90.6466 33.17C90.9133 33.3167 91.1 33.5067 91.2066 33.74C91.3133 33.9733 91.3466 34.2267 91.3066 34.5L90.5266 34.64C90.6066 34.2067 90.56 33.87 90.3866 33.63C90.22 33.39 89.9433 33.27 89.5566 33.27C89.2566 33.27 89.0166 33.3467 88.8366 33.5C88.6566 33.6467 88.5666 33.8633 88.5666 34.15C88.5666 34.3633 88.6333 34.5533 88.7666 34.72C88.9 34.88 89.1233 35 89.4366 35.08L90.0666 35.23C90.5066 35.3367 90.8466 35.5067 91.0866 35.74C91.3333 35.9733 91.4566 36.28 91.4566 36.66C91.4566 37.0867 91.3 37.4333 90.9866 37.7C90.68 37.9667 90.24 38.1 89.6666 38.1C89.3933 38.1 89.1266 38.06 88.8666 37.98C88.6133 37.8933 88.39 37.76 88.1966 37.58C88.01 37.3933 87.8733 37.1533 87.7866 36.86L88.3466 36.66C88.42 37.08 88.58 37.3733 88.8266 37.54C89.0733 37.7067 89.3566 37.79 89.6766 37.79C89.8633 37.79 90.04 37.76 90.2066 37.7C90.38 37.64 90.52 37.5467 90.6266 37.42C90.7333 37.2867 90.7866 37.1167 90.7866 36.91C90.7866 36.6967 90.7133 36.5133 90.5666 36.36C90.42 36.2067 90.1533 36.08 89.7666 35.98Z" fill="#FFA100"/>
</svg>
